HIERARCHY
ROOT Hips
{
 OFFSET 0.000000 0.000000 0.000000
 CHANNELS 6 Xposition Yposition Zposition Yrotation Xrotation Zrotation
 JOINT Chest
 {
  OFFSET 0.000000 9.588913 -0.003946
  CHANNELS 3 Yrotation Xrotation Zrotation
  JOINT Chest2
  {
   OFFSET 0.000000 9.541882 0.008053
   CHANNELS 3 Yrotation Xrotation Zrotation
   JOINT Chest3
   {
    OFFSET 0.000000 9.501360 0.000000
    CHANNELS 3 Yrotation Xrotation Zrotation
    JOINT Chest4
    {
     OFFSET 0.000000 9.491660 0.000000
     CHANNELS 3 Yrotation Xrotation Zrotation
     JOINT Neck
     {
      OFFSET 0.000000 14.331917 0.000000
      CHANNELS 3 Yrotation Xrotation Zrotation
      JOINT Head
      {
       OFFSET 0.000000 8.884799 0.017034
       CHANNELS 3 Yrotation Xrotation Zrotation
       End Site
       {
        OFFSET 0.000000 16.896195 0.008993
       }
      }
     }
     JOINT RightCollar
     {
      OFFSET -2.923010 9.499495 0.000000
      CHANNELS 3 Yrotation Xrotation Zrotation
      JOINT RightShoulder
      {
       OFFSET -13.795216 0.000000 0.000000
       CHANNELS 3 Yrotation Xrotation Zrotation
       JOINT RightElbow
       {
        OFFSET -30.272209 0.000000 0.000000
        CHANNELS 3 Yrotation Xrotation Zrotation
        JOINT RightWrist
        {
         OFFSET -24.478199 0.000000 0.000000
         CHANNELS 3 Yrotation Xrotation Zrotation
         End Site
         {
          OFFSET -18.090752 0.000000 0.000000
         }
        }
       }
      }
     }
     JOINT LeftCollar
     {
      OFFSET 2.923010 9.499495 0.000000
      CHANNELS 3 Yrotation Xrotation Zrotation
      JOINT LeftShoulder
      {
       OFFSET 13.795216 0.000000 0.000000
       CHANNELS 3 Yrotation Xrotation Zrotation
       JOINT LeftElbow
       {
        OFFSET 30.272209 0.000000 0.000000
        CHANNELS 3 Yrotation Xrotation Zrotation
        JOINT LeftWrist
        {
         OFFSET 24.478199 0.000000 0.000000
         CHANNELS 3 Yrotation Xrotation Zrotation
         End Site
         {
          OFFSET 18.090752 0.000000 0.000000
         }
        }
       }
      }
     }
    }
   }
  }
 }
 JOINT RightHip
 {
  OFFSET -7.826875 0.019532 0.001973
  CHANNELS 3 Yrotation Xrotation Zrotation
  JOINT RightKnee
  {
   OFFSET 0.000000 -40.546152 -0.001885
   CHANNELS 3 Yrotation Xrotation Zrotation
   JOINT RightAnkle
   {
    OFFSET 0.000000 -39.417092 -0.003189
    CHANNELS 3 Yrotation Xrotation Zrotation
    JOINT RightToe
    {
     OFFSET 0.000000 -7.579396 17.243563
     CHANNELS 3 Yrotation Xrotation Zrotation
     End Site
     {
      OFFSET 0.000000 -1.500329 6.694466
     }
    }
   }
  }
 }
 JOINT LeftHip
 {
  OFFSET 7.826875 0.019532 0.001973
  CHANNELS 3 Yrotation Xrotation Zrotation
  JOINT LeftKnee
  {
   OFFSET 0.000000 -40.546152 -0.001885
   CHANNELS 3 Yrotation Xrotation Zrotation
   JOINT LeftAnkle
   {
    OFFSET 0.000000 -39.417092 -0.003189
    CHANNELS 3 Yrotation Xrotation Zrotation
    JOINT LeftToe
    {
     OFFSET 0.000000 -7.579396 17.243563
     CHANNELS 3 Yrotation Xrotation Zrotation
     End Site
     {
      OFFSET 0.000000 -1.500329 6.694466
     }
    }
   }
  }
 }
}
MOTION
Frames: 7
Frame Time: 0.008333
0.000000 87.345680 0.000000 0.000000 -5.767889 0.000000 0.000000 11.653876 0.000000 0.000000 -5.885988 0.000000 0.000000 -0.000000 0.000000 0.000000 -0.000000 0.000000 0.000000 12.528808 0.000000 0.000000 0.711711 0.000000 0.000000 -0.000000 0.000000 0.000000 -0.000000 0.000000 2.309063 -0.000000 0.000000 -2.309063 -0.000000 -0.000000 0.000000 -0.000000 0.000000 0.000000 0.000000 0.000000 -2.309063 0.000000 0.000000 2.309063 -0.000000 0.000000 0.000000 8.520374 0.000000 0.000000 1.905768 0.000000 -0.000000 -4.658254 0.000000 0.000000 -0.000000 0.000000 0.000000 8.520374 0.000000 0.000000 1.905768 0.000000 -0.000000 -4.658254 0.000000 0.000000 -0.000000 0.000000
-2.888630 88.730137 -14.583337 141.380331 -23.155575 2.733088 0.612516 10.566427 0.122403 0.377399 5.987446 -0.048497 0.471599 7.484347 -0.054492 0.377399 5.987446 -0.048497 -18.789276 15.445352 -2.125053 -21.736669 -8.291753 2.116137 -2.056182 -1.246069 -4.908799 25.435264 13.175922 92.652910 23.626055 5.802202 48.052828 12.243741 -4.755285 0.919980 -4.950968 0.962808 1.608728 -24.902388 10.265046 -89.669783 -31.131828 33.986038 -47.333760 -6.631756 -2.045114 -7.693852 -5.773412 25.131156 -13.906389 4.579558 12.340205 1.191751 -3.039172 -13.910548 6.112950 -0.029695 1.029748 0.431477 1.933801 30.903784 2.916086 9.260349 -1.859561 -3.208886 0.188497 -7.827380 0.083650 -0.079305 -0.207636 0.085721
-2.849120 88.759479 -14.582780 141.437477 -23.344121 2.713311 0.583628 10.552874 0.134743 0.362797 5.995364 -0.045896 0.453364 7.494241 -0.051468 0.362796 5.995364 -0.045896 -18.803096 15.378818 -2.146309 -21.753936 -8.369092 2.096698 -1.900503 -1.296463 -4.737346 25.690625 13.174016 92.509745 23.810673 5.869860 47.974917 12.426220 -4.883655 0.709027 -4.879944 0.997887 1.570711 -24.783921 10.208682 -89.590600 -31.042919 34.071851 -47.383093 -6.718287 -1.966189 -7.622318 -6.451569 25.351927 -14.168528 4.583653 12.026249 1.153767 -2.749174 -13.610882 6.023712 -0.045408 0.794841 0.362598 1.746853 31.072566 2.829971 9.253127 -1.831713 -3.078016 0.246671 -7.744562 -0.031340 -0.067039 -0.306691 0.080969
-2.799437 88.787352 -14.574903 141.513985 -23.551163 2.662627 0.553306 10.550117 0.167138 0.338569 6.007333 -0.036204 0.423199 7.509191 -0.039724 0.338569 6.007333 -0.036204 -18.816559 15.308367 -2.180584 -21.767473 -8.451666 2.061903 -1.761114 -1.328163 -4.603882 26.005825 13.135064 92.358434 23.984309 5.916310 47.889608 12.599148 -5.007384 0.510797 -4.810684 1.053085 1.572326 -24.677621 10.112708 -89.585916 -30.915260 34.178424 -47.346877 -6.862043 -1.834417 -7.540535 -7.023603 25.585376 -14.369948 4.708297 11.761388 1.164086 -2.618076 -13.301717 5.983153 -0.062952 0.562188 0.265642 1.612161 31.234212 2.801662 9.261744 -1.764091 -2.937970 0.264506 -7.657514 -0.149013 -0.061333 -0.418232 0.069485
-2.746791 88.808450 -14.558657 141.612196 -23.744914 2.616261 0.513539 10.536958 0.188609 0.305965 6.022323 -0.022342 0.382617 7.527914 -0.022899 0.305964 6.022322 -0.022342 -18.825883 15.233144 -2.220068 -21.774341 -8.540579 2.020090 -1.650628 -1.357517 -4.515519 26.346321 13.076046 92.211148 24.140581 5.946976 47.805088 12.744633 -5.116748 0.351998 -4.748599 1.110703 1.621290 -24.599594 9.997488 -89.664085 -30.738951 34.270710 -47.214708 -7.047133 -1.640382 -7.456260 -7.458953 25.819127 -14.524659 4.908363 11.518947 1.211101 -2.638483 -12.963924 5.970637 -0.066424 0.319925 0.167625 1.515850 31.358711 2.793966 9.274649 -1.658426 -2.792730 0.229360 -7.620536 -0.273934 -0.040780 -0.488145 0.061762
-2.689495 88.820010 -14.533090 141.721277 -23.926128 2.574482 0.468442 10.525703 0.207926 0.266776 6.038691 -0.007108 0.333818 7.548364 -0.004468 0.266776 6.038692 -0.007109 -18.828009 15.149075 -2.258025 -21.772500 -8.640667 1.978621 -1.568417 -1.394900 -4.475427 26.674516 13.014795 92.081656 24.275868 5.958762 47.727335 12.832149 -5.208020 0.254436 -4.694920 1.163169 1.713060 -24.553142 9.877963 -89.817404 -30.509503 34.316255 -46.997258 -7.250060 -1.391484 -7.376845 -7.751315 26.054736 -14.614362 5.107688 11.309102 1.261275 -2.742099 -12.648961 5.974275 -0.056974 0.104260 0.082049 1.461419 31.449015 2.809259 9.270085 -1.519760 -2.646507 0.183503 -7.616909 -0.397454 -0.022267 -0.532078 0.051121
-2.627200 88.820225 -14.497961 141.828231 -24.089603 2.546729 0.419312 10.519556 0.223053 0.224020 6.054673 0.007652 0.280546 7.568333 0.013308 0.224020 6.054674 0.007651 -18.821411 15.052103 -2.291759 -21.760896 -8.756726 1.940457 -1.513265 -1.446494 -4.485284 26.956311 12.966431 91.978809 24.384278 5.947883 47.670921 12.844161 -5.282898 0.228903 -4.649070 1.202397 1.833068 -24.535145 9.765420 -90.030611 -30.221541 34.295494 -46.720318 -7.449175 -1.115723 -7.307800 -7.923458 26.285237 -14.648002 5.245901 11.129103 1.293151 -2.862066 -12.381275 5.986070 -0.038619 -0.066253 0.013258 1.443390 31.507431 2.838832 9.234504 -1.358350 -2.505509 0.149380 -7.645196 -0.516106 -0.009861 -0.549092 0.036960
